<?xml version="1.0" standalone="no"?>
<!DOCTYPE svg PUBLIC "-//W3C//DTD SVG 20010904//EN"
 "http://www.w3.org/TR/2001/REC-SVG-20010904/DTD/svg10.dtd">
<svg version="1.0" xmlns="http://www.w3.org/2000/svg"
 width="1280.000000pt" height="1216.000000pt" viewBox="0 0 1280.000000 1216.000000"
 preserveAspectRatio="xMidYMid meet">
<g transform="translate(0.000000,1216.000000) scale(0.100000,-0.100000)"
fill="#000000" stroke="none">
<path d="M9495 12148 c-108 -26 -280 -88 -520 -187 -311 -130 -423 -168 -525
-183 -96 -13 -152 0 -197 49 l-33 35 -15 -36 c-24 -57 -38 -135 -33 -188 8
-80 69 -128 165 -128 81 0 82 -5 25 -116 -135 -265 -162 -439 -162 -1065 0
-289 -3 -379 -12 -386 -7 -6 -42 -16 -77 -22 -96 -19 -225 -68 -291 -113 -97
-64 -143 -159 -125 -255 24 -133 197 -288 436 -390 46 -20 86 -38 89 -40 3 -3
7 -80 10 -172 5 -165 5 -168 34 -210 35 -50 196 -193 314 -279 111 -79 321
-184 437 -217 49 -14 94 -30 98 -34 12 -12 137 -411 137 -437 0 -28 -92 -64
-387 -150 -323 -94 -468 -146 -628 -224 -159 -78 -253 -149 -306 -231 -31 -48
-34 -62 -39 -144 l-5 -90 -40 -7 c-22 -4 -123 -10 -225 -13 -102 -3 -232 -13
-290 -21 -58 -7 -194 -23 -302 -34 -307 -31 -574 -82 -662 -127 -218 -110
-511 -340 -818 -641 -115 -113 -172 -163 -183 -159 -40 16 -130 99 -235 216
-119 133 -165 169 -203 155 -12 -4 -380 -10 -817 -13 -764 -6 -796 -7 -827
-25 -36 -22 -49 -49 -58 -123 -5 -41 -11 -52 -28 -57 -12 -3 -245 -52 -517
-110 -892 -190 -963 -205 -974 -216 -7 -7 -6 -20 2 -43 8 -23 12 -123 12 -325
l0 -292 23 -4 c12 -3 56 -7 97 -11 41 -3 179 -14 305 -25 127 -10 340 -29 475
-40 390 -33 673 -57 991 -85 l295 -25 130 61 c71 33 143 71 159 83 17 13 65
42 108 65 42 24 82 51 87 61 6 10 10 40 10 67 0 26 4 54 9 61 15 24 267 45
297 24 6 -4 31 -58 57 -120 99 -246 202 -369 330 -392 64 -12 378 15 872 75
275 34 708 95 814 115 66 12 114 13 109 1 -5 -15 -115 -100 -141 -110 -13 -5
-176 -48 -363 -96 -1218 -313 -1469 -379 -1554 -406 -124 -40 -315 -132 -426
-205 -116 -77 -285 -245 -348 -347 -179 -289 -183 -626 -11 -985 62 -128 131
-238 294 -462 128 -176 332 -477 443 -655 115 -184 248 -414 248 -428 0 -8
-165 -89 -377 -187 -208 -95 -394 -185 -413 -200 -52 -39 -125 -140 -150 -207
-122 -324 261 -621 895 -693 55 -6 136 -15 179 -20 110 -14 284 -12 391 4 89
13 100 18 728 332 l639 318 64 96 c140 211 198 397 164 522 -6 20 -26 59 -45
87 -19 28 -35 54 -35 58 0 3 34 41 75 84 110 112 111 105 -66 375 -78 118
-138 218 -135 221 3 4 55 -6 114 -20 59 -15 139 -32 177 -37 42 -6 643 -10
1505 -10 1556 0 1522 -1 1715 55 373 108 688 416 815 793 58 173 64 238 64
662 0 324 -2 400 -17 480 -34 183 -93 332 -193 482 -35 53 -64 102 -64 108 0
7 22 40 48 74 175 222 359 527 427 709 22 60 32 66 46 30 70 -168 136 -251
248 -306 62 -30 72 -32 176 -32 102 0 115 2 175 31 78 37 156 105 200 175 71
110 69 99 240 1382 88 661 164 1221 170 1244 15 61 12 104 -10 191 -29 110
-64 175 -131 246 -190 204 -505 169 -668 -74 -57 -86 -77 -150 -101 -311 -11
-79 -23 -145 -25 -148 -10 -9 -22 15 -54 109 -53 153 -95 225 -185 315 -77 76
-135 113 -246 158 -34 14 -44 34 -257 476 -123 253 -223 467 -223 475 0 8 30
35 68 59 251 168 411 428 472 772 34 188 37 394 10 600 -47 361 -132 574 -285
713 -143 131 -506 339 -806 462 -209 86 -370 131 -635 179 -70 13 -162 12
-219 -1z m1308 -7979 c37 -28 75 -62 85 -76 9 -13 31 -39 47 -56 77 -81 145
-229 170 -373 21 -121 21 -499 0 -620 -16 -91 -71 -234 -92 -241 -6 -2 -19 12
-28 31 -43 91 -188 184 -353 227 -95 25 -365 38 -814 39 -240 0 -308 3 -307
13 0 6 39 44 87 82 288 233 629 542 906 822 111 111 208 202 216 202 8 1 46
-22 83 -50z"/>
<path d="M753 10645 c-12 -8 -102 -51 -200 -95 l-177 -81 -28 21 c-15 11 -28
16 -28 10 0 -6 117 -436 261 -957 143 -520 259 -955 257 -966 -2 -13 -34 -38
-92 -74 -308 -185 -530 -454 -642 -778 -54 -155 -104 -435 -104 -581 0 -75 30
-327 55 -464 39 -211 132 -510 241 -775 66 -159 262 -560 271 -552 3 3 -2 68
-10 144 -24 212 -28 335 -17 490 39 552 258 905 657 1062 39 15 54 17 61 8 6
-7 70 -228 142 -492 73 -264 137 -485 144 -492 6 -6 88 -21 181 -33 94 -12
196 -26 227 -31 55 -9 82 -4 675 141 340 82 629 152 641 155 42 10 72 50 72
94 0 22 -62 247 -139 508 -77 257 -259 871 -406 1363 -146 492 -345 1161 -441
1485 -151 509 -179 593 -202 615 -21 19 -53 31 -132 47 -613 128 -1186 243
-1213 243 -18 0 -42 -7 -54 -15z"/>
</g>
</svg>
